<mxfile host="app.diagrams.net" modified="2024-01-16T18:11:26.425Z" agent="Mozilla/5.0 (Macintosh; Intel Mac OS X 10.15; rv:109.0) Gecko/20100101 Firefox/119.0" etag="vFLZt57mHBJUFdeC4d1m" version="22.1.19" type="github">
  <diagram id="C5RBs43oDa-KdzZeNtuy" name="Page-1">
    <mxGraphModel dx="1306" dy="809" grid="1" gridSize="10" guides="1" tooltips="1" connect="1" arrows="1" fold="1" page="1" pageScale="1" pageWidth="827" pageHeight="1169" math="0" shadow="0">
      <root>
        <mxCell id="WIyWlLk6GJQsqaUBKTNV-0" />
        <mxCell id="WIyWlLk6GJQsqaUBKTNV-1" parent="WIyWlLk6GJQsqaUBKTNV-0" />
        <mxCell id="UIjVPUBwcDJrQktnKeVY-5" value="" style="edgeStyle=orthogonalEdgeStyle;rounded=0;orthogonalLoop=1;jettySize=auto;html=1;" edge="1" parent="WIyWlLk6GJQsqaUBKTNV-1" source="UIjVPUBwcDJrQktnKeVY-3">
          <mxGeometry relative="1" as="geometry">
            <mxPoint x="310" y="140" as="targetPoint" />
          </mxGeometry>
        </mxCell>
        <mxCell id="UIjVPUBwcDJrQktnKeVY-7" value="" style="edgeStyle=orthogonalEdgeStyle;rounded=0;orthogonalLoop=1;jettySize=auto;html=1;" edge="1" parent="WIyWlLk6GJQsqaUBKTNV-1" source="UIjVPUBwcDJrQktnKeVY-3" target="UIjVPUBwcDJrQktnKeVY-6">
          <mxGeometry relative="1" as="geometry" />
        </mxCell>
        <mxCell id="UIjVPUBwcDJrQktnKeVY-3" value="&lt;div&gt;TF code &lt;br&gt;&lt;/div&gt;&lt;div&gt;Git push&lt;/div&gt;" style="rounded=1;whiteSpace=wrap;html=1;" vertex="1" parent="WIyWlLk6GJQsqaUBKTNV-1">
          <mxGeometry x="90" y="110" width="120" height="60" as="geometry" />
        </mxCell>
        <mxCell id="UIjVPUBwcDJrQktnKeVY-9" value="" style="edgeStyle=orthogonalEdgeStyle;rounded=0;orthogonalLoop=1;jettySize=auto;html=1;" edge="1" parent="WIyWlLk6GJQsqaUBKTNV-1" source="UIjVPUBwcDJrQktnKeVY-6" target="UIjVPUBwcDJrQktnKeVY-8">
          <mxGeometry relative="1" as="geometry" />
        </mxCell>
        <mxCell id="UIjVPUBwcDJrQktnKeVY-6" value="Github repository" style="ellipse;whiteSpace=wrap;html=1;rounded=1;" vertex="1" parent="WIyWlLk6GJQsqaUBKTNV-1">
          <mxGeometry x="310" y="100" width="110" height="80" as="geometry" />
        </mxCell>
        <mxCell id="UIjVPUBwcDJrQktnKeVY-22" style="edgeStyle=orthogonalEdgeStyle;rounded=0;orthogonalLoop=1;jettySize=auto;html=1;" edge="1" parent="WIyWlLk6GJQsqaUBKTNV-1" source="UIjVPUBwcDJrQktnKeVY-8">
          <mxGeometry relative="1" as="geometry">
            <mxPoint x="555" y="270" as="targetPoint" />
          </mxGeometry>
        </mxCell>
        <mxCell id="UIjVPUBwcDJrQktnKeVY-8" value="&lt;div&gt;Github action&lt;/div&gt;&lt;div&gt;Workflow&lt;/div&gt;" style="whiteSpace=wrap;html=1;rounded=1;" vertex="1" parent="WIyWlLk6GJQsqaUBKTNV-1">
          <mxGeometry x="495" y="110" width="120" height="60" as="geometry" />
        </mxCell>
        <mxCell id="UIjVPUBwcDJrQktnKeVY-16" value="Terraform" style="swimlane;whiteSpace=wrap;html=1;" vertex="1" parent="WIyWlLk6GJQsqaUBKTNV-1">
          <mxGeometry x="470" y="275" width="200" height="170" as="geometry" />
        </mxCell>
        <mxCell id="UIjVPUBwcDJrQktnKeVY-17" value="terraform init" style="rounded=1;whiteSpace=wrap;html=1;" vertex="1" parent="UIjVPUBwcDJrQktnKeVY-16">
          <mxGeometry x="40" y="30" width="120" height="30" as="geometry" />
        </mxCell>
        <mxCell id="UIjVPUBwcDJrQktnKeVY-18" value="terraform plan" style="rounded=1;whiteSpace=wrap;html=1;" vertex="1" parent="UIjVPUBwcDJrQktnKeVY-16">
          <mxGeometry x="40" y="70" width="120" height="30" as="geometry" />
        </mxCell>
        <mxCell id="UIjVPUBwcDJrQktnKeVY-19" value="terraform apply" style="rounded=1;whiteSpace=wrap;html=1;" vertex="1" parent="UIjVPUBwcDJrQktnKeVY-16">
          <mxGeometry x="40" y="120" width="120" height="30" as="geometry" />
        </mxCell>
        <mxCell id="UIjVPUBwcDJrQktnKeVY-23" value="AWS " style="ellipse;shape=cloud;whiteSpace=wrap;html=1;" vertex="1" parent="WIyWlLk6GJQsqaUBKTNV-1">
          <mxGeometry x="210" y="320" width="120" height="80" as="geometry" />
        </mxCell>
        <mxCell id="UIjVPUBwcDJrQktnKeVY-24" style="edgeStyle=orthogonalEdgeStyle;rounded=0;orthogonalLoop=1;jettySize=auto;html=1;entryX=0.875;entryY=0.5;entryDx=0;entryDy=0;entryPerimeter=0;" edge="1" parent="WIyWlLk6GJQsqaUBKTNV-1" source="UIjVPUBwcDJrQktnKeVY-16" target="UIjVPUBwcDJrQktnKeVY-23">
          <mxGeometry relative="1" as="geometry" />
        </mxCell>
      </root>
    </mxGraphModel>
  </diagram>
</mxfile>
